<svg xmlns="http://www.w3.org/2000/svg" version="1.1" xmlns:xlink="http://www.w3.org/1999/xlink" xmlns:svgjs="http://svgjs.dev/svgjs" width="560" height="1440" preserveAspectRatio="none" viewBox="0 0 560 1440">
    <g mask="url(&quot;#SvgjsMask1035&quot;)" fill="none">
        <rect width="560" height="1440" x="0" y="0" fill="rgba(37, 37, 47, 1)"></rect>
        <path d="M301.14,112.709C319.117,113.309,334.941,102.112,344.266,86.731C353.985,70.7,358.71,50.217,348.591,34.436C338.996,19.473,318.912,19.147,301.14,19.476C284.166,19.79,265.322,21.551,256.639,36.139C247.821,50.953,254.064,69.105,262.727,84.01C271.335,98.821,284.019,112.138,301.14,112.709" fill="rgba(255, 191, 0, 0.76)" class="triangle-float3"></path>
        <path d="M544.431,517.592C581.097,518.311,620.758,509.077,638.769,477.131C656.559,445.577,642.58,407.817,623.78,376.853C605.868,347.352,578.927,322.841,544.431,321.755C508.166,320.613,474.149,340.192,455.93,371.569C437.635,403.078,437.41,442.391,456.295,473.55C474.54,503.653,509.238,516.901,544.431,517.592" fill="rgba(255, 191, 0, 0.76)" class="triangle-float3"></path>
        <path d="M340.288,655.507C374.679,655.766,412.551,649.403,429.571,619.518C446.476,589.834,431.618,554.685,414.56,525.089C397.472,495.442,374.506,464.358,340.288,464.612C306.339,464.864,284.632,496.636,267.901,526.177C251.498,555.138,237.048,589.146,253.304,618.19C269.82,647.697,306.474,655.252,340.288,655.507" fill="rgba(255, 191, 0, 0.76)" class="triangle-float3"></path>
        <path d="M-27.182,464.655C-9.575,465.345,7.431,455.963,15.793,440.452C23.792,425.613,19.89,407.926,11.181,393.492C2.803,379.606,-10.964,369.167,-27.182,369.222C-43.315,369.276,-57.312,379.62,-65.098,393.75C-72.606,407.376,-72.027,423.576,-64.69,437.296C-56.869,451.922,-43.755,464.005,-27.182,464.655" fill="rgba(255, 191, 0, 0.76)" class="triangle-float3"></path>
        <path d="M419.165,522.758C456.558,521.633,487.454,497.536,506.878,465.564C527.225,432.071,538.497,391.252,520.067,356.667C500.702,320.328,460.341,301.238,419.165,300.965C377.482,300.689,336.623,319.135,315.923,355.316C295.349,391.277,300.065,435.867,321.809,471.132C342.472,504.644,379.813,523.942,419.165,522.758" fill="rgba(255, 191, 0, 0.76)" class="triangle-float2"></path>
        <path d="M156.377,777.439C204.125,778.88,245,744.753,267.019,702.36C287.378,663.163,281.273,617.373,259.468,578.961C237.34,539.979,201.114,510.253,156.377,507.448C106.346,504.311,51.591,520.139,28.169,564.46C5.697,606.982,31.921,654.809,56.725,696.014C80.437,735.404,110.422,776.052,156.377,777.439" fill="rgba(255, 191, 0, 0.76)" class="triangle-float3"></path>
        <path d="M389.792,567.134C432.684,569.268,479.39,559.562,501.499,522.745C524.091,485.124,513.214,437.63,489.878,400.466C468.124,365.821,430.699,344.439,389.792,344.843C349.582,345.24,312.733,367.332,293.071,402.409C273.832,436.733,275.884,478.582,295.807,512.513C315.471,546.003,351.004,565.204,389.792,567.134" fill="rgba(255, 191, 0, 0.76)" class="triangle-float2"></path>
        <path d="M198.443,273.362C256.055,273.505,319,259.693,346.276,208.947C372.642,159.895,346.598,102.175,315.164,56.206C288.373,17.026,245.907,-7.315,198.443,-7.248C151.1,-7.181,108.917,17.389,82.289,56.534C51.202,102.233,25.774,159.498,51.873,208.218C78.933,258.731,141.139,273.22,198.443,273.362" fill="rgba(255, 191, 0, 0.76)" class="triangle-float1"></path>
        <path d="M214.631,146.804C246.135,146.293,266.839,118.503,283.569,91.803C301.894,62.557,322.743,29.33,307.705,-1.735C291.341,-35.541,252.125,-52.801,214.631,-50.61C180.379,-48.608,154.106,-22.497,138.666,8.143C124.837,35.586,126.942,67.153,141.707,94.104C157.151,122.295,182.491,147.325,214.631,146.804" fill="rgba(255, 191, 0, 0.76)" class="triangle-float2"></path>
        <path d="M212.534,549.035C262.466,553.015,313.535,529.067,337.225,484.933C359.939,442.616,345.971,391.145,318.387,351.828C294.816,318.231,253.556,308.434,212.534,307.201C168.45,305.876,117.44,307.115,95.049,345.113C72.466,383.436,95.889,428.924,118.095,467.467C140.35,506.097,168.093,545.493,212.534,549.035" fill="rgba(255, 191, 0, 0.76)" class="triangle-float2"></path>
        <path d="M168.655,977.689C184.008,977.069,197.134,967.057,204.137,953.379C210.551,940.852,208.221,926.301,201.215,914.095C194.173,901.824,182.784,892.29,168.655,891.555C153.204,890.752,137.888,897.277,129.651,910.374C120.878,924.323,119.574,942.202,127.835,956.46C136.076,970.683,152.23,978.352,168.655,977.689" fill="rgba(255, 191, 0, 0.76)" class="triangle-float1"></path>
        <path d="M535.504,743.524C585.471,741.309,621.099,702.336,647.967,660.15C677.834,613.255,709.462,558.845,684.89,508.972C658.347,455.099,595.525,429.802,535.504,431.888C478.956,433.854,430.303,469.163,403.085,518.768C376.93,566.436,376.731,624.106,404.331,670.952C431.518,717.097,481.999,745.896,535.504,743.524" fill="rgba(255, 191, 0, 0.76)" class="triangle-float2"></path>
        <path d="M580.731,470.095C632.406,471.717,682.816,447.904,709.167,403.424C736.002,358.127,736.875,299.776,707.525,256.067C680.8,216.268,628.599,209.554,580.731,212.154C538.199,214.465,498.382,232.576,475.746,268.659C451.534,307.254,444.482,355.375,465.539,395.778C488.175,439.209,531.779,468.559,580.731,470.095" fill="rgba(255, 191, 0, 0.76)" class="triangle-float2"></path>
        <path d="M153.546,263.541C200.373,261.188,242.186,237.769,267.369,198.22C294.819,155.111,308.604,101.906,285.492,56.324C260.342,6.723,209.139,-27.756,153.546,-26.269C100.041,-24.838,59.851,16.606,33.283,63.07C6.953,109.117,-9.27,165.265,18.017,210.751C44.748,255.311,101.648,266.149,153.546,263.541" fill="rgba(255, 191, 0, 0.76)" class="triangle-float1"></path>
        <path d="M266.906,1370.079C304.188,1372.247,343.131,1357.275,360.956,1324.459C378.191,1292.73,366.125,1254.472,345.979,1224.507C328.321,1198.243,298.554,1184.679,266.906,1184.572C235.047,1184.465,203.121,1196.547,186.906,1223.971C170.431,1251.835,174.523,1286.128,190.069,1314.521C206.338,1344.234,233.087,1368.112,266.906,1370.079" fill="rgba(255, 191, 0, 0.76)" class="triangle-float2"></path>
        <path d="M548.02,667.976C587.651,668.787,623.738,644.313,642.118,609.193C659.3,576.362,651.788,537.738,632.849,505.889C614.394,474.855,584.097,452.429,548.02,450.953C509.225,449.366,469.413,464.649,450.255,498.421C431.3,531.835,441.177,572.192,460.366,605.472C479.578,638.792,509.566,667.189,548.02,667.976" fill="rgba(255, 191, 0, 0.76)" class="triangle-float1"></path>
        <path d="M479.923,1191.209C504.954,1190.909,524.256,1171.82,536.643,1150.067C548.875,1128.586,554.755,1102.659,542.605,1081.131C530.282,1059.295,504.996,1049.616,479.923,1049.564C454.746,1049.511,429.424,1059.092,416.787,1080.868C404.109,1102.716,408.251,1129.532,420.796,1151.457C433.438,1173.55,454.471,1191.514,479.923,1191.209" fill="rgba(255, 191, 0, 0.76)" class="triangle-float3"></path>
        <path d="M209.438,198.617C243.831,197.381,273.312,176.445,290.552,146.659C307.828,116.811,312.726,80.016,295.315,50.247C278.05,20.729,243.629,8.586,209.438,7.976C173.941,7.342,137.094,17.1,118.081,47.083C97.84,79.003,98.038,120.509,117.553,152.878C136.486,184.282,172.792,199.934,209.438,198.617" fill="rgba(255, 191, 0, 0.76)" class="triangle-float2"></path>
        <path d="M176.564,1119.707C221.106,1117.337,255.678,1087.232,280.064,1049.884C307.778,1007.44,337.737,955.607,312.367,911.722C287.009,867.858,227.207,869.308,176.564,870.852C129.591,872.284,80.034,880.21,54.385,919.588C26.609,962.232,25.529,1018.582,52.048,1062.018C77.596,1103.863,127.605,1122.312,176.564,1119.707" fill="rgba(255, 191, 0, 0.76)" class="triangle-float2"></path>
        <path d="M319.704,558.724C347.258,560.678,377.889,554.163,391.551,530.155C405.117,506.315,393.772,477.556,379.068,454.4C365.632,433.241,344.757,417.791,319.704,417.009C293.231,416.183,266.129,427.171,253.556,450.483C241.464,472.904,250.291,499.344,263.575,521.08C276.166,541.682,295.619,557.016,319.704,558.724" fill="rgba(255, 191, 0, 0.76)" class="triangle-float2"></path>
    </g>
    <defs>
        <mask id="SvgjsMask1035">
            <rect width="560" height="1440" fill="#ffffff"></rect>
        </mask>
        <style>
            @keyframes float1 {
                    0%{transform: translate(0, 0)}
                    50%{transform: translate(-10px, 0)}
                    100%{transform: translate(0, 0)}
                }

                .triangle-float1 {
                    animation: float1 5s infinite;
                }

                @keyframes float2 {
                    0%{transform: translate(0, 0)}
                    50%{transform: translate(-5px, -5px)}
                    100%{transform: translate(0, 0)}
                }

                .triangle-float2 {
                    animation: float2 4s infinite;
                }

                @keyframes float3 {
                    0%{transform: translate(0, 0)}
                    50%{transform: translate(0, -10px)}
                    100%{transform: translate(0, 0)}
                }

                .triangle-float3 {
                    animation: float3 6s infinite;
                }
        </style>
    </defs>
</svg>